# xmcd
#
# Track frame offsets: 
#        150
#        20871
#        39788
#        59420
#        78033
#
# Disc length: 1158 seconds
#
# Revision: 0
# Processed by: cddbd v1.5.2PL0 Copyright (c) Steve Scherf et al.
# Submitted via: ExactAudioCopyFreeDBPlugin 1.0
#
DISCID=32048405
DTITLE=The Veils - The Abbey Road EP
DYEAR=2013
DGENRE=
TTITLE0=Out from the Valley and Into the Stars
TTITLE1=Turn From the Rain
TTITLE2=Birds
TTITLE3=The Pearl
TTITLE4=Summer and Smoke
EXTD=
EXTT0=
EXTT1=
EXTT2=
EXTT3=
EXTT4=
PLAYORDER=
